<svg width="345" height="38" viewBox="0 0 345 38" fill="none" xmlns="http://www.w3.org/2000/svg">
<path d="M222.665 0H227.028C227.159 0 227.27 0.066106 227.27 0.242382V4.6493C227.27 4.78151 227.171 4.89167 227.028 4.89167H222.665C222.532 4.89167 222.423 4.79252 222.423 4.6493V0.242382C222.423 0.110175 222.522 0 222.665 0Z" fill="white"/>
<path d="M240.844 15.5898C239.785 15.4796 238.794 15.3805 238.033 15.2262C236.59 14.9508 236.138 14.3999 236.138 13.5406C236.138 12.2295 237.34 11.3371 239.642 11.3371C242.011 11.3371 244.149 12.1965 245.724 13.5406C245.823 13.6397 245.966 13.6397 246.066 13.5075L248.643 10.4778C248.742 10.3786 248.742 10.2354 248.611 10.1362C247.3 8.96838 244.689 7.3158 240.227 7.3158C235.202 7.3158 231.843 9.68452 231.843 13.8821C231.843 16.9449 233.495 18.3882 235.688 19.1373C237.142 19.622 238.584 19.7432 239.983 19.8645C240.854 19.9416 241.713 20.0077 242.528 20.173C244.149 20.4483 244.655 21.0984 244.655 22.1341C244.655 23.5442 243.387 24.4037 240.876 24.4037C237.957 24.4037 235.72 23.4782 233.968 21.7924C233.869 21.6934 233.692 21.6603 233.594 21.7924L231.081 24.8223C231.071 24.8443 231.071 24.8554 231.059 24.8774C231.027 24.9655 230.994 25.0427 231.081 25.0976C232.349 26.4088 235.071 28.4029 240.469 28.4029C246.726 28.4029 249.194 25.3732 249.194 21.7375C249.061 17.8924 246.44 16.4822 244.171 16.0305C243.102 15.8321 241.933 15.711 240.844 15.5898Z" fill="white"/>
<path d="M226.937 7.75577H222.784C222.652 7.75577 222.542 7.85491 222.542 7.99813L222.531 27.664C222.531 27.7963 222.63 27.9064 222.773 27.9064H226.927C227.058 27.9064 227.169 27.8072 227.169 27.664L227.179 7.99813C227.179 7.86592 227.114 7.75577 226.937 7.75577Z" fill="white"/>
<path fill-rule="evenodd" clip-rule="evenodd" d="M264.431 7.24847C261.578 7.24847 259.419 8.20697 257.931 9.79347V7.97562C257.931 7.84341 257.832 7.73323 257.689 7.73323H253.767C253.634 7.73323 253.525 7.83238 253.525 7.97562V36.2019C253.525 36.3342 253.624 36.4443 253.767 36.4443H257.888C258.019 36.4443 258.13 36.3451 258.13 36.2019V25.9888C259.606 27.4321 261.665 28.2584 264.453 28.2584C270.468 28.2584 274.457 23.6532 274.457 17.704C274.436 11.8978 270.48 7.24847 264.431 7.24847ZM263.671 23.9948C259.749 23.9948 257.755 21.2074 257.755 17.77C257.755 14.3656 259.749 11.6223 263.671 11.6223C267.351 11.6223 269.555 14.4097 269.555 17.77C269.555 21.2074 267.351 23.9948 263.671 23.9948Z" fill="white"/>
<path d="M288.418 7.32648C289.376 7.32648 290.313 7.53582 290.995 7.7782C291.128 7.81125 291.128 7.9104 291.128 8.11973L289.993 12.3504C289.96 12.4826 289.86 12.5267 289.718 12.4826C288.991 12.2402 288.241 12.108 287.624 12.108C284.704 12.108 282.952 14.5098 282.952 17.2971V27.6754C282.952 27.8076 282.853 27.9179 282.71 27.9179H278.59C278.459 27.9179 278.348 27.8187 278.348 27.6754V8.00956C278.348 7.87737 278.447 7.76718 278.59 7.76718H282.512C282.645 7.76718 282.754 7.86634 282.754 8.00956V10.4885C284.22 8.04261 286.49 7.32648 288.418 7.32648Z" fill="white"/>
<path fill-rule="evenodd" clip-rule="evenodd" d="M344.724 7.77846H340.802C340.669 7.77846 340.56 7.87762 340.56 8.02084V9.81666C339.05 8.23018 336.912 7.27167 334.059 7.27167C328.044 7.27167 324.056 12.0862 324.056 17.9694C324.056 23.8857 328.044 28.5241 334.059 28.5241C336.813 28.5241 338.907 27.6647 340.383 26.2545V28.1825C340.383 31.719 337.673 33.0962 335.194 33.0962C332.858 33.0962 330.688 31.9614 329.52 29.6918C329.488 29.5597 329.278 29.4825 329.178 29.5597L325.333 31.3115C325.234 31.3444 325.201 31.5208 325.234 31.5869C326.304 34.0987 329.222 37.2278 335.205 37.2278C341.671 37.2278 345 33.2064 345 28.1825V8.03187C344.955 7.88865 344.855 7.77846 344.724 7.77846ZM334.819 24.2162C331.14 24.2162 328.936 21.429 328.936 17.9914C328.936 14.5871 331.14 11.6345 334.819 11.6345C338.741 11.6345 340.735 14.6312 340.735 17.9914C340.735 21.4399 338.741 24.2162 334.819 24.2162Z" fill="white"/>
<path d="M294.075 7.81161H298.196C298.329 7.81161 298.438 7.91077 298.438 8.05399V27.7309C298.438 27.863 298.339 27.9733 298.196 27.9733H294.075C293.944 27.9733 293.833 27.8741 293.833 27.7309V8.05399C293.833 7.91077 293.944 7.81161 294.075 7.81161Z" fill="white"/>
<path d="M313.473 7.39297C310.937 7.39297 308.91 8.19724 307.456 9.60745V8.03199C307.456 7.89978 307.357 7.80061 307.225 7.80061H303.381C303.248 7.80061 303.149 7.89978 303.149 8.03199V27.7309C303.149 27.8631 303.248 27.9623 303.381 27.9623H307.434C307.567 27.9623 307.678 27.8631 307.678 27.7309V16.6805C307.678 14.0254 309.098 11.6236 312.029 11.6236C314.497 11.6236 316.149 13.3864 316.149 16.35V27.7309C316.149 27.8631 316.248 27.9623 316.381 27.9623H320.435C320.567 27.9623 320.667 27.8631 320.667 27.7309V15.2373C320.633 11.1389 318.816 7.39297 313.473 7.39297Z" fill="white"/>
<path d="M293.989 0.0106812H298.342C298.475 0.0106812 298.584 0.0767853 298.584 0.253063V4.65998C298.584 4.79219 298.485 4.90236 298.342 4.90236H293.989C293.858 4.90236 293.747 4.8032 293.747 4.65998V0.253063C293.747 0.120854 293.858 0.0106812 293.989 0.0106812Z" fill="white"/>
<path d="M194.041 9.89432H194.075H197.689H197.721C198.338 9.89432 198.791 9.44262 198.791 8.82564V1.08048C198.791 0.463521 198.338 0.0118103 197.721 0.0118103H197.689H194.075H194.041C193.424 0.0118103 192.974 0.463521 192.974 1.08048V8.82564C192.94 9.48668 193.392 9.89432 194.041 9.89432Z" fill="#FF603D"/>
<path d="M189.183 14.0253L189.216 13.9922L191.452 11.1718L191.486 11.1388C191.861 10.654 191.793 10.037 191.309 9.62941L185.25 4.81483C184.764 4.44024 184.147 4.50635 183.741 4.99112L183.707 5.02417L181.471 7.84459L181.437 7.87764C181.062 8.3624 181.13 8.97938 181.614 9.38701L187.673 14.2016C188.191 14.5762 188.808 14.5101 189.183 14.0253Z" fill="#FF603D"/>
<path d="M189.391 20.3614V20.3282L188.598 16.8137V16.7808C188.466 16.1638 187.949 15.8553 187.32 15.9874L179.785 17.7063C179.168 17.8384 178.858 18.3562 178.991 18.9841V19.0173L179.785 22.5318V22.5647C179.916 23.1817 180.434 23.4902 181.062 23.3581L188.598 21.6394C189.226 21.4962 189.534 20.9784 189.391 20.3614Z" fill="#FF603D"/>
<path d="M194.49 24.151L194.457 24.118L191.217 22.5646L191.185 22.5315C190.602 22.2561 190.016 22.4654 189.774 23.0493L186.436 30.0011C186.162 30.5852 186.37 31.1691 186.953 31.4115L186.987 31.4444L190.227 32.9979L190.259 33.031C190.844 33.3064 191.427 33.097 191.669 32.5132L195.008 25.5613C195.25 25.0104 195.04 24.4265 194.49 24.151Z" fill="#FF603D"/>
<path d="M200.608 22.5642L200.574 22.5974L197.335 24.1508L197.303 24.1839C196.718 24.4593 196.543 25.0432 196.785 25.6272L200.156 32.5791C200.431 33.1629 201.015 33.3393 201.6 33.0969L201.632 33.0638L204.871 31.5103L204.905 31.4774C205.488 31.2018 205.665 30.618 205.423 30.0341L202.05 23.082C201.753 22.4982 201.158 22.2889 200.608 22.5642Z" fill="#FF603D"/>
<path d="M203.167 16.7469V16.78L202.373 20.2945V20.3275C202.242 20.9445 202.55 21.4623 203.167 21.6055L210.702 23.3242C211.319 23.4565 211.837 23.148 211.981 22.531V22.4979L212.773 18.9834V18.9504C212.906 18.3334 212.598 17.8156 211.981 17.6724L204.444 15.9537C203.849 15.8105 203.331 16.119 203.167 16.7469Z" fill="#FF603D"/>
<path d="M200.233 11.1391L200.265 11.1721L202.503 13.9925L202.535 14.0256C202.909 14.5103 203.538 14.5765 204.044 14.2019L210.103 9.38732C210.589 9.01273 210.655 8.38473 210.28 7.87793L210.248 7.84488L208.01 5.02446L207.978 4.9914C207.603 4.50665 206.975 4.44055 206.469 4.81513L200.41 9.6297C199.924 10.0373 199.858 10.6212 200.233 11.1391Z" fill="#FF603D"/>
<path d="M0 7.70148H3.50349V22.6079L14.9945 7.70148H18.0903V28.0725H14.631V13.0779L3.13992 28.0725H0V7.70148Z" fill="white"/>
<path d="M24.006 7.70193H27.5096V16.0971H38.6371V7.70193H42.1407V28.0729H38.6371V19.2702H27.5096V28.0729H24.006V7.70193Z" fill="white"/>
<path d="M57.3418 28.4799C51.1942 28.4799 46.6661 23.7974 46.6661 17.8923C46.6661 11.987 51.1831 7.3046 57.3418 7.3046C61.5394 7.3046 64.9658 9.50806 66.7506 12.7582L63.6987 14.4658C62.553 12.1412 60.2724 10.5547 57.3418 10.5547C53.1002 10.5547 50.2136 13.8158 50.2136 17.8923C50.2136 21.9686 53.1111 25.2298 57.3418 25.2298C60.2724 25.2298 62.553 23.6433 63.6987 21.3187L66.7506 23.0263C64.9547 26.2763 61.5394 28.4799 57.3418 28.4799Z" fill="white"/>
<path d="M75.269 10.919H68.7907V7.70193H85.537V10.919H78.7724V28.0729H75.269V10.919Z" fill="white"/>
<path d="M88.9683 7.70193H92.4717V22.6083L103.963 7.70193H107.059V28.0729H103.599V13.0784L92.1083 28.0729H88.9683V7.70193Z" fill="white"/>
<path d="M116.97 10.919H110.492V7.70193H127.238V10.919H120.474V28.0729H116.97V10.919Z" fill="white"/>
<path d="M140.019 31.6975C138.344 35.4104 136.394 36.9969 133.254 36.9969C132.274 36.9969 131.58 36.9529 130.974 36.7876V33.6917C131.58 33.7689 132.12 33.8129 132.968 33.8129C134.356 33.8129 135.535 33.1188 136.637 30.717L138.311 27.1364L129.31 7.70193H133.177L140.228 23.0601L147.158 7.70193H151.069L140.019 31.6975Z" fill="white"/>
<path d="M159.565 10.919H153.086V7.70193H169.832V10.919H163.068V28.0729H159.565V10.919Z" fill="white"/>
</svg>
